<svg width="19" height="19" viewBox="0 0 19 19" fill="none" xmlns="http://www.w3.org/2000/svg">
<g clip-path="url(#clip0_1579_2238)">
<path d="M17.9691 0.265625H1.0269C0.619458 0.265625 0.290283 0.5948 0.290283 1.00224V17.9444C0.290283 18.3518 0.619458 18.681 1.0269 18.681H17.9691C18.3765 18.681 18.7057 18.3518 18.7057 17.9444V1.00224C18.7057 0.5948 18.3765 0.265625 17.9691 0.265625ZM15.8421 5.64061H14.3711C13.2179 5.64061 12.9946 6.18847 12.9946 6.99415V8.76893H15.7477L15.3886 11.5473H12.9946V18.681H10.1241V11.5497H7.72319V8.76893H10.1241V6.72022C10.1241 4.34233 11.5766 3.04635 13.699 3.04635C14.7164 3.04635 15.5889 3.12231 15.8444 3.15684V5.64061H15.8421Z" fill="#335BF5"/>
</g>
<defs>
<clipPath id="clip0_1579_2238">
<rect width="18.4154" height="18.4154" fill="white" transform="translate(0.290283 0.265625)"/>
</clipPath>
</defs>
</svg>
