<svg width="19" height="19" viewBox="0 0 19 19" fill="none" xmlns="http://www.w3.org/2000/svg">
<g clip-path="url(#clip0_1579_2240)">
<path d="M9.26069 4.75269C6.64801 4.75269 4.53945 6.86125 4.53945 9.47393C4.53945 12.0866 6.64801 14.1952 9.26069 14.1952C11.8734 14.1952 13.9819 12.0866 13.9819 9.47393C13.9819 6.86125 11.8734 4.75269 9.26069 4.75269ZM9.26069 12.5424C7.57108 12.5424 6.19223 11.1635 6.19223 9.47393C6.19223 7.78432 7.57108 6.40547 9.26069 6.40547C10.9503 6.40547 12.3292 7.78432 12.3292 9.47393C12.3292 11.1635 10.9503 12.5424 9.26069 12.5424ZM14.1753 3.45901C13.5653 3.45901 13.0727 3.95162 13.0727 4.56163C13.0727 5.17164 13.5653 5.66425 14.1753 5.66425C14.7853 5.66425 15.2779 5.17394 15.2779 4.56163C15.2781 4.41678 15.2497 4.27332 15.1944 4.13946C15.139 4.0056 15.0578 3.88398 14.9554 3.78155C14.8529 3.67913 14.7313 3.59792 14.5975 3.54257C14.4636 3.48722 14.3201 3.45883 14.1753 3.45901ZM18.4638 9.47393C18.4638 8.20327 18.4753 6.94412 18.4039 5.67576C18.3326 4.20253 17.9965 2.89504 16.9192 1.81774C15.8396 0.738134 14.5344 0.404355 13.0612 0.332996C11.7905 0.261636 10.5314 0.273146 9.26299 0.273146C7.99233 0.273146 6.73318 0.261636 5.46482 0.332996C3.99159 0.404355 2.6841 0.740436 1.6068 1.81774C0.527197 2.89734 0.193418 4.20253 0.122058 5.67576C0.0506985 6.94642 0.0622081 8.20557 0.0622081 9.47393C0.0622081 10.7423 0.0506985 12.0037 0.122058 13.2721C0.193418 14.7453 0.529499 16.0528 1.6068 17.1301C2.6864 18.2097 3.99159 18.5435 5.46482 18.6149C6.73548 18.6862 7.99463 18.6747 9.26299 18.6747C10.5337 18.6747 11.7928 18.6862 13.0612 18.6149C14.5344 18.5435 15.8419 18.2074 16.9192 17.1301C17.9988 16.0505 18.3326 14.7453 18.4039 13.2721C18.4776 12.0037 18.4638 10.7446 18.4638 9.47393ZM16.4381 14.9019C16.27 15.3208 16.0675 15.6339 15.7429 15.9561C15.4183 16.2807 15.1076 16.4833 14.6886 16.6513C13.4778 17.1324 10.6027 17.0242 9.26069 17.0242C7.91867 17.0242 5.04127 17.1324 3.83046 16.6536C3.41151 16.4856 3.09844 16.283 2.77618 15.9584C2.4516 15.6339 2.24903 15.3231 2.08099 14.9042C1.60219 13.6911 1.71038 10.816 1.71038 9.47393C1.71038 8.13191 1.60219 5.25451 2.08099 4.0437C2.24903 3.62475 2.4516 3.31168 2.77618 2.98941C3.10075 2.66715 3.41151 2.46227 3.83046 2.29423C5.04127 1.81543 7.91867 1.92362 9.26069 1.92362C10.6027 1.92362 13.4801 1.81543 14.6909 2.29423C15.1099 2.46227 15.4229 2.66484 15.7452 2.98941C16.0698 3.31399 16.2724 3.62475 16.4404 4.0437C16.9192 5.25451 16.811 8.13191 16.811 9.47393C16.811 10.816 16.9192 13.6911 16.4381 14.9019Z" fill="#E61F5A"/>
</g>
<defs>
<clipPath id="clip0_1579_2240">
<rect width="18.4154" height="18.4154" fill="white" transform="translate(0.0517578 0.265625)"/>
</clipPath>
</defs>
</svg>
