<svg width="20" height="17" viewBox="0 0 20 17" fill="none" xmlns="http://www.w3.org/2000/svg">
<g clip-path="url(#clip0_1579_2242)">
<path d="M19.2292 2.69211C18.5527 2.98824 17.8166 3.20137 17.0583 3.28438C17.8456 2.80975 18.4351 2.05991 18.7163 1.17555C17.9776 1.62152 17.1683 1.93424 16.3243 2.09984C15.9716 1.71717 15.545 1.41232 15.0711 1.20428C14.5972 0.996244 14.0861 0.889477 13.5698 0.890634C11.4806 0.890634 9.80046 2.6091 9.80046 4.71793C9.80046 5.01406 9.83583 5.3102 9.89331 5.59511C6.76513 5.4291 3.97519 3.91254 2.12038 1.59059C1.78242 2.17638 1.60531 2.84338 1.6075 3.52218C1.6075 4.85029 2.27292 6.02136 3.28765 6.7101C2.68966 6.6862 2.10567 6.5194 1.58318 6.22327V6.27038C1.58318 8.13019 2.87866 9.67143 4.60524 10.0259C4.28106 10.1113 3.94757 10.1551 3.61263 10.156C3.36724 10.156 3.13511 10.1313 2.90077 10.0977C3.37829 11.6142 4.76884 12.7158 6.42467 12.7517C5.12919 13.7814 3.50651 14.3871 1.74456 14.3871C1.42843 14.3871 1.13661 14.3759 0.83374 14.34C2.50505 15.4281 4.48808 16.0562 6.62364 16.0562C13.5565 16.0562 17.3501 10.2278 17.3501 5.16886C17.3501 5.00285 17.3501 4.83683 17.339 4.67082C18.073 4.12566 18.7163 3.45039 19.2292 2.69211Z" fill="#21A6DF"/>
</g>
<defs>
<clipPath id="clip0_1579_2242">
<rect width="18.4154" height="15.1656" fill="white" transform="translate(0.813477 0.890625)"/>
</clipPath>
</defs>
</svg>
