<svg width="110" height="15" viewBox="0 0 110 15" fill="none" xmlns="http://www.w3.org/2000/svg">
<path d="M5.84383 14.0192H0.208723V1.14681H5.21771C6.08937 1.14681 6.83826 1.25116 7.46438 1.45987C8.10278 1.66858 8.58158 1.95095 8.90078 2.30698C9.4778 2.96993 9.76631 3.71883 9.76631 4.55366C9.76631 5.56037 9.44097 6.30926 8.79029 6.80033C8.56931 6.97221 8.41585 7.0827 8.32991 7.13181C8.24397 7.16864 8.09051 7.23616 7.86952 7.33438C8.66752 7.50626 9.29978 7.86843 9.76631 8.42089C10.2451 8.96107 10.4845 9.6363 10.4845 10.4466C10.4845 11.3428 10.1776 12.1347 9.56374 12.8222C8.85168 13.6202 7.61171 14.0192 5.84383 14.0192ZM3.08152 6.35837H4.44426C5.24226 6.35837 5.83155 6.27243 6.21214 6.10055C6.605 5.92867 6.80143 5.56036 6.80143 4.99563C6.80143 4.41861 6.62342 4.03803 6.26738 3.85387C5.91135 3.66972 5.30978 3.57764 4.46268 3.57764H3.08152V6.35837ZM3.08152 11.5883H5.05197C5.87452 11.5883 6.48837 11.4901 6.89351 11.2937C7.31092 11.085 7.51963 10.686 7.51963 10.0967C7.51963 9.49512 7.29865 9.10226 6.85668 8.9181C6.42699 8.72167 5.73334 8.62346 4.77574 8.62346H3.08152V11.5883ZM17.9173 6.54252C17.0948 6.54252 16.4809 6.83716 16.0758 7.42646C15.6706 8.00347 15.4681 8.77078 15.4681 9.72838V14.0192H12.7058V4.11169H15.4681V5.41918C15.8241 5.01404 16.2661 4.67029 16.794 4.38792C17.3342 4.10555 17.8805 3.95823 18.433 3.94595L18.4514 6.54252H17.9173ZM28.6796 14.0192H26.083V12.8222C25.3709 13.7184 24.487 14.1665 23.4312 14.1665C22.3877 14.1665 21.5099 13.8657 20.7978 13.2641C20.0857 12.6503 19.7297 11.84 19.7297 10.8333C19.7297 9.81432 20.098 9.05315 20.8346 8.5498C21.5712 8.04644 22.5779 7.79476 23.8547 7.79476H25.9173V7.73952C25.9173 6.6837 25.3587 6.1558 24.2415 6.1558C23.7627 6.1558 23.2532 6.25401 22.713 6.45044C22.1851 6.6346 21.737 6.86786 21.3687 7.15023L20.1348 5.36393C21.4362 4.41861 22.9217 3.94595 24.5914 3.94595C25.7945 3.94595 26.7767 4.24673 27.5378 4.8483C28.299 5.44987 28.6796 6.40133 28.6796 7.70269V14.0192ZM25.8989 10.244V9.76521H24.1678C23.0629 9.76521 22.5104 10.109 22.5104 10.7965C22.5104 11.1525 22.6393 11.4287 22.8971 11.6252C23.1672 11.8093 23.5478 11.9014 24.0389 11.9014C24.53 11.9014 24.9597 11.7541 25.328 11.4594C25.7086 11.1525 25.8989 10.7474 25.8989 10.244ZM34.0369 8.49455V14.0192H31.2746V4.11169H34.0369V5.21661C34.8718 4.3695 35.8109 3.94595 36.8545 3.94595C37.898 3.94595 38.7697 4.31426 39.4695 5.05087C40.1815 5.78749 40.5376 6.76964 40.5376 7.99733V14.0192H37.7752V8.42089C37.7752 6.89855 37.2166 6.13738 36.0994 6.13738C35.547 6.13738 35.062 6.33995 34.6446 6.74509C34.2395 7.13795 34.0369 7.7211 34.0369 8.49455ZM47.072 14.1665C45.9057 14.1665 44.8622 13.6693 43.9414 12.6748C43.0207 11.6804 42.5603 10.4466 42.5603 8.97335C42.5603 7.50012 43.0084 6.29698 43.9046 5.36393C44.8008 4.41861 45.8505 3.94595 47.0536 3.94595C48.2568 3.94595 49.2389 4.3695 50.0001 5.21661V0.354949H52.7624V14.0192H50.0001V12.7117C49.2266 13.6815 48.2506 14.1665 47.072 14.1665ZM45.341 9.08384C45.341 9.88184 45.5804 10.5387 46.0592 11.0543C46.538 11.5576 47.0966 11.8093 47.735 11.8093C48.3734 11.8093 48.9136 11.5576 49.3555 11.0543C49.8098 10.5387 50.0369 9.88184 50.0369 9.08384C50.0369 8.27356 49.8098 7.60447 49.3555 7.07657C48.9136 6.53638 48.3673 6.26629 47.7166 6.26629C47.0659 6.26629 46.5073 6.53638 46.0408 7.07657C45.5743 7.61675 45.341 8.28584 45.341 9.08384ZM64.7358 1.14681H67.6086V14.0192H64.7358L58.6034 5.95323V14.0192H55.7306V1.14681H58.4193L64.7358 9.43373V1.14681ZM78.9994 14.0192H76.4028V12.8222C75.6907 13.7184 74.8068 14.1665 73.751 14.1665C72.7075 14.1665 71.8297 13.8657 71.1176 13.2641C70.4055 12.6503 70.0495 11.84 70.0495 10.8333C70.0495 9.81432 70.4178 9.05315 71.1544 8.5498C71.891 8.04644 72.8977 7.79476 74.1745 7.79476H76.2371V7.73952C76.2371 6.6837 75.6785 6.1558 74.5613 6.1558C74.0825 6.1558 73.573 6.25401 73.0328 6.45044C72.5049 6.6346 72.0568 6.86786 71.6885 7.15023L70.4546 5.36393C71.756 4.41861 73.2415 3.94595 74.9112 3.94595C76.1143 3.94595 77.0965 4.24673 77.8576 4.8483C78.6188 5.44987 78.9994 6.40133 78.9994 7.70269V14.0192ZM76.2187 10.244V9.76521H74.4876C73.3827 9.76521 72.8302 10.109 72.8302 10.7965C72.8302 11.1525 72.9591 11.4287 73.2169 11.6252C73.487 11.8093 73.8676 11.9014 74.3587 11.9014C74.8498 11.9014 75.2795 11.7541 75.6478 11.4594C76.0284 11.1525 76.2187 10.7474 76.2187 10.244ZM90.6916 8.6787V14.0192H87.9109V8.60504C87.9109 7.81932 87.7881 7.2423 87.5426 6.874C87.3093 6.50569 86.9226 6.32153 86.3824 6.32153C85.8545 6.32153 85.3818 6.5241 84.9644 6.92924C84.5593 7.3221 84.3567 7.90526 84.3567 8.6787V14.0192H81.5944V4.11169H84.3567V5.23503C85.1179 4.37564 85.9895 3.94595 86.9717 3.94595C87.5978 3.94595 88.1626 4.1301 88.6659 4.49841C89.1815 4.86672 89.5683 5.31483 89.8261 5.84273C90.2067 5.24116 90.7162 4.77464 91.3546 4.44316C92.0052 4.11169 92.6559 3.94595 93.3066 3.94595C94.4729 3.94595 95.4121 4.29584 96.1241 4.99563C96.8362 5.68313 97.1922 6.6837 97.1922 7.99733V14.0192H94.4115V8.60504C94.4115 7.0827 93.8529 6.32153 92.7357 6.32153C92.1833 6.32153 91.7045 6.5241 91.2993 6.92924C90.8942 7.3221 90.6916 7.90526 90.6916 8.6787ZM108.362 12.5828C107.245 13.6386 105.932 14.1665 104.421 14.1665C102.924 14.1665 101.684 13.7061 100.702 12.7853C99.7194 11.8523 99.2283 10.6062 99.2283 9.04701C99.2283 7.48784 99.7256 6.24787 100.72 5.3271C101.727 4.40633 102.911 3.94595 104.274 3.94595C105.637 3.94595 106.791 4.35723 107.736 5.17978C108.694 6.00233 109.173 7.13181 109.173 8.56821V10.0414H101.954C102.04 10.5816 102.322 11.0236 102.801 11.3673C103.28 11.7111 103.82 11.883 104.421 11.883C105.391 11.883 106.189 11.5576 106.815 10.907L108.362 12.5828ZM106.374 8.071C106.312 7.4817 106.091 7.02746 105.711 6.70826C105.33 6.38906 104.863 6.22946 104.311 6.22946C103.771 6.22946 103.274 6.3952 102.819 6.72667C102.365 7.05815 102.101 7.50626 102.027 8.071H106.374Z" fill="white"/>
</svg>
