<svg width="19" height="15" viewBox="0 0 19 15" fill="none" xmlns="http://www.w3.org/2000/svg">
<g clip-path="url(#clip0_1579_2244)">
<path d="M18.5836 2.81757C18.4789 2.40862 18.2739 2.03576 17.9891 1.7363C17.7043 1.43684 17.3497 1.22128 16.9608 1.11121C15.5286 0.703613 9.77332 0.703613 9.77332 0.703613C9.77332 0.703613 4.01808 0.703613 2.58584 1.11121C2.19693 1.22128 1.84233 1.43684 1.55754 1.7363C1.27275 2.03576 1.06775 2.40862 0.96307 2.81757C0.695639 4.35348 0.565862 5.91239 0.575446 7.47379C0.565862 9.0352 0.695639 10.5941 0.96307 12.13C1.06775 12.539 1.27275 12.9118 1.55754 13.2113C1.84233 13.5107 2.19693 13.7263 2.58584 13.8364C4.01808 14.244 9.77332 14.244 9.77332 14.244C9.77332 14.244 15.5286 14.244 16.9608 13.8364C17.3497 13.7263 17.7043 13.5107 17.9891 13.2113C18.2739 12.9118 18.4789 12.539 18.5836 12.13C18.851 10.5941 18.9808 9.0352 18.9712 7.47379C18.9808 5.91239 18.851 4.35348 18.5836 2.81757ZM7.93375 10.3753V4.57229L12.7101 7.47379L7.93375 10.3753Z" fill="#E42F08"/>
</g>
<defs>
<clipPath id="clip0_1579_2244">
<rect width="18.4154" height="13.5692" fill="white" transform="translate(0.574951 0.688477)"/>
</clipPath>
</defs>
</svg>
