<svg width="113" height="46" viewBox="0 0 113 46" fill="none" xmlns="http://www.w3.org/2000/svg">
<g clip-path="url(#clip0_1579_2428)">
<g clip-path="url(#clip1_1579_2428)">
<path d="M24.2124 1.14452H33.8898V27.2442C33.8898 31.3836 35.7556 33.8473 37.2731 34.8728C35.6934 36.2609 30.9045 37.4865 27.2972 34.5226C25.1826 32.7718 24.2124 29.8579 24.2124 27.1442V1.14452ZM84.6524 22.8422V20.0909H87.6129V10.4864H84.3663C83.11 4.69618 77.9977 0.394165 71.8902 0.394165C64.8499 0.394165 59.1156 6.14685 59.1156 13.2377V35.6481C61.1058 35.9358 63.5189 35.6106 65.5465 33.8973C67.6735 32.1465 68.6313 29.2451 68.6313 26.5189V25.681H73.4575V16.0765H68.6313V13.1626C68.6313 8.83561 75.1243 8.83561 75.1243 13.1626V22.8046C75.1243 29.8829 80.8462 35.6481 87.8989 35.6481V26.0812C86.0953 26.0812 84.6524 24.618 84.6524 22.8422ZM48.0451 10.4614V24.593C48.0451 26.5189 45.0847 26.5189 45.0847 24.593V10.4614H35.5317V27.0566C35.5317 30.033 36.5268 33.8098 41.1291 35.0479C45.7315 36.2734 48.3685 33.7222 48.3685 33.7222C48.1073 35.398 46.5649 36.6361 44.0274 36.8862C42.0994 37.0863 39.6489 36.436 38.4299 35.9108V44.7024C41.5521 45.6403 44.8359 45.9279 48.0824 45.2901C53.9411 44.1521 57.6354 39.2373 57.6354 32.6842V10.3988H48.0451V10.4614Z" fill="#737373"/>
</g>
</g>
<defs>
<clipPath id="clip0_1579_2428">
<rect width="112.027" height="45.2712" fill="white" transform="translate(0.0422363 0.380798)"/>
</clipPath>
<clipPath id="clip1_1579_2428">
<rect width="63.6865" height="45.2712" fill="white" transform="translate(24.2124 0.380829)"/>
</clipPath>
</defs>
</svg>
