<svg width="117" height="34" viewBox="0 0 117 34" fill="none" xmlns="http://www.w3.org/2000/svg">
<g clip-path="url(#clip0_1579_2434)">
<g clip-path="url(#clip1_1579_2434)">
<path d="M39.53 3.42972L34.183 4.55277L34.1583 21.9358C34.1583 25.1463 36.6033 27.2215 39.8511 27.2215C41.654 27.2215 42.9753 26.8919 43.7039 26.5013V22.3752C43 22.656 39.5424 23.657 39.5424 20.4587V12.7438H43.7039V8.12948H39.5424L39.53 3.42972ZM50.5329 9.72862L50.1994 8.12948H45.4575V26.8309H50.928V14.2453C52.2246 12.5607 54.4104 12.8903 55.1143 13.11V8.12948C54.3733 7.87313 51.8171 7.39705 50.5329 9.72862ZM61.9308 0.902832L56.4233 2.06251V6.48151L61.9308 5.32183V0.902832ZM24.699 13.6349C24.699 12.7926 25.4153 12.463 26.5637 12.4508C28.2308 12.4508 30.3548 12.9513 32.0219 13.8424V8.73983C30.2066 8.03182 28.3913 7.75105 26.5761 7.75105C22.1305 7.75105 19.1667 10.046 19.1667 13.8791C19.1667 19.885 27.5022 18.9084 27.5022 21.4963C27.5022 22.4973 26.6255 22.8269 25.4029 22.8269C23.5876 22.8269 21.2414 22.0823 19.4014 21.0935V25.9764C21.4389 26.8431 23.5012 27.2093 25.3906 27.2093C29.9473 27.2093 33.0839 25.2806 33.0839 21.3743C33.0839 14.9167 24.699 16.0763 24.699 13.6349ZM98.1871 17.6999C98.1871 12.1456 95.4704 7.76326 90.2591 7.76326C85.0479 7.76326 81.8743 12.1456 81.8743 17.6633C81.8743 24.1941 85.616 27.2093 90.9507 27.2093C93.5686 27.2093 95.5321 26.6233 97.0263 25.8055V21.7283C95.5321 22.4729 93.8156 22.9246 91.6422 22.9246C89.5059 22.9246 87.6288 22.1799 87.3819 19.6408H98.113C98.1377 19.3601 98.1871 18.2248 98.1871 17.6999ZM87.3325 15.6491C87.3325 13.2077 88.8514 12.1823 90.2221 12.1823C91.5681 12.1823 93.0006 13.2077 93.0006 15.6491H87.3325ZM73.3906 7.76326C71.2419 7.76326 69.8588 8.76425 69.0932 9.46006L68.8092 8.11727H63.9808V33.1175L69.4637 31.9701L69.476 25.8421C70.2663 26.4158 71.4395 27.2093 73.3535 27.2093C77.2805 27.2093 80.8617 24.3772 80.8617 17.4924C80.874 11.1935 77.2434 7.76326 73.3906 7.76326ZM72.0816 22.717C70.7973 22.717 70.0317 22.2532 69.5007 21.6916L69.4637 13.6349C70.0317 13.0123 70.822 12.5607 72.0816 12.5607C74.0821 12.5607 75.4652 14.7824 75.4652 17.6144C75.4775 20.532 74.1192 22.717 72.0816 22.717ZM56.4356 26.8309H61.9432V8.12948H56.4356V26.8309Z" fill="#737373"/>
</g>
</g>
<defs>
<clipPath id="clip0_1579_2434">
<rect width="115.863" height="32.2269" fill="white" transform="translate(0.738525 0.902893)"/>
</clipPath>
<clipPath id="clip1_1579_2434">
<rect width="79.0327" height="32.2269" fill="white" transform="translate(19.1538 0.902863)"/>
</clipPath>
</defs>
</svg>
