<svg width="117" height="48" viewBox="0 0 117 48" fill="none" xmlns="http://www.w3.org/2000/svg">
<g clip-path="url(#clip0_1579_2437)">
<g clip-path="url(#clip1_1579_2437)">
<path d="M41.2019 17.4856C41.1124 20.2771 42.5195 21.5133 42.5543 22.2983C42.5377 22.4581 42.4828 22.6117 42.3941 22.7461C42.3055 22.8805 42.1856 22.992 42.0446 23.0711L40.4536 24.1754C40.2477 24.3185 40.005 24.4006 39.7538 24.412C39.7004 24.4095 38.7358 24.6376 37.2082 21.2557C36.2762 22.4092 35.0903 23.336 33.7414 23.9651C32.3925 24.5942 30.9163 24.909 29.4258 24.8853C27.4022 24.995 21.9181 23.7465 22.2003 17.9576C22.0027 13.2397 26.4339 10.3089 31.0168 10.5567C31.8994 10.5591 33.7017 10.6023 36.8576 11.3294V9.40431C37.192 6.14322 35.0305 3.61297 31.2878 3.99257C30.9895 3.9938 28.8764 3.93094 25.5899 5.23859C24.6751 5.65516 24.5583 5.58614 24.2537 5.58614C23.3327 5.58614 23.7118 2.93881 23.8883 2.60358C24.5359 1.8148 28.3456 0.342011 32.0846 0.362963C34.5845 0.143742 37.0711 0.908759 39.0068 2.49266C39.7936 3.36535 40.3939 4.38711 40.7714 5.49624C41.1489 6.60537 41.2958 7.77886 41.2031 8.94584L41.2019 17.4856ZM30.46 21.4775C34.491 21.4196 36.1976 19.0163 36.5867 17.7222C36.8925 16.4836 36.8415 15.6997 36.8415 14.3453C35.6395 14.0593 33.9093 13.7475 31.9242 13.745C30.0411 13.6045 26.6017 14.4389 26.736 17.721C26.5818 19.7903 28.1182 21.5909 30.46 21.4775ZM51.7052 24.3183C50.7282 24.4071 50.2732 23.7194 50.1291 23.0403L43.939 2.74778C43.8184 2.40515 43.7388 2.05144 43.7003 1.69033C43.6775 1.54145 43.7152 1.38967 43.8052 1.26835C43.8951 1.14702 44.03 1.06607 44.1801 1.04328C44.2099 1.03835 43.9153 1.04328 46.9458 1.04328C48.0371 0.934826 48.3926 1.78646 48.5057 2.32135L52.9457 19.6781L57.0674 2.32135C57.1333 1.92449 57.4329 0.957011 58.6585 1.05931H60.7914C61.0612 1.03712 62.1724 0.997681 62.3675 2.33737L66.5216 19.916L71.1045 2.33737C71.1642 2.06869 71.4426 0.936059 72.6806 1.05931H75.1318C75.2375 1.04328 75.8962 0.959475 75.7844 2.11676C75.7309 2.34476 76.2082 0.802953 69.2276 23.0563C69.0847 23.7354 68.6285 24.4231 67.6515 24.3344H65.3283C63.9685 24.4761 63.7734 23.1438 63.7522 23.0095L59.6305 6.10871L55.556 22.9922C55.5361 23.1266 55.3409 24.4588 53.9798 24.3171H51.7052V24.3183ZM85.6985 25.0122C84.9676 25.0135 81.4822 24.9753 78.5687 23.4975C78.2785 23.3757 78.0312 23.1711 77.8584 22.9098C77.6856 22.6485 77.5949 22.3422 77.5979 22.0297V20.7048C77.5979 19.6633 78.3686 19.8544 78.6955 19.9788C79.9434 20.4792 80.7439 20.8588 82.2765 21.162C86.8321 22.0901 88.8358 20.8785 89.3268 20.6099C90.9613 19.6473 91.0906 17.4449 89.9793 16.3024C88.6767 15.2191 88.0552 15.1784 83.3753 13.7142C82.7986 13.5552 77.9435 12.0369 77.9323 7.26106C77.8564 3.78058 81.046 0.337081 86.5735 0.365428C88.1484 0.364195 92.3447 0.874435 93.4808 2.29054C93.6486 2.54812 93.7319 2.85131 93.7195 3.15819V4.40421C93.7195 4.95142 93.5181 5.22503 93.1142 5.22503C92.1558 5.11904 90.4554 3.84837 87.0036 3.90013C86.1472 3.85576 82.0453 4.01229 82.2293 6.97759C82.1758 9.31434 85.5369 10.1906 85.921 10.2917C90.4529 11.6437 91.9681 11.868 93.7667 13.9373C95.8972 16.6795 94.7487 19.8901 94.3074 20.7701C91.9358 25.3906 85.8029 25.0147 85.6985 25.0122ZM90.6953 37.9358C81.9906 44.3101 69.3544 47.7031 58.5652 47.7031C44.0074 47.7983 29.9402 42.4907 19.1289 32.8236C18.3172 32.0977 19.0332 31.1031 20.0201 31.6564C32.013 38.4586 45.5916 42.0327 59.408 42.0239C69.7257 41.9691 79.9309 39.8937 89.4374 35.9171C90.9016 35.3008 92.1434 36.8784 90.6953 37.9358ZM94.3236 33.833C93.2099 32.4132 86.9551 33.1699 84.1547 33.5014C83.3107 33.5963 83.1677 32.8704 83.9322 32.3343C88.9128 28.8624 97.093 29.857 98.0327 31.0242C98.9711 32.1913 97.7779 40.3182 93.1154 44.2004C92.3994 44.8007 91.7145 44.4839 92.0327 43.6951C93.0818 41.0762 95.4373 35.254 94.3236 33.833Z" fill="#737373"/>
</g>
</g>
<defs>
<clipPath id="clip0_1579_2437">
<rect width="115.863" height="47.5731" fill="white" transform="translate(0.621094 0.229828)"/>
</clipPath>
<clipPath id="clip1_1579_2437">
<rect width="79.8" height="47.5731" fill="white" transform="translate(18.6528 0.229828)"/>
</clipPath>
</defs>
</svg>
