<svg width="117" height="58" viewBox="0 0 117 58" fill="none" xmlns="http://www.w3.org/2000/svg">
<g clip-path="url(#clip0_1579_2431)">
<g clip-path="url(#clip1_1579_2431)">
<path d="M97.5364 0.354156C87.6554 7.01631 86.6037 11.8513 85.7477 13.3304C84.9283 14.8468 84.3169 20.8254 82.8983 23.7214C81.4675 26.6547 76.2702 28.9666 74.815 29.9361C73.3842 30.9056 71.3542 34.6717 69.691 37.9158C56.4715 37.3689 49.2197 42.7384 37.9935 49.5497C41.5889 48.344 43.2887 47.474 43.2887 47.474C54.8084 42.9994 60.3236 38.9847 77.6643 41.3587C77.7988 41.3587 77.8967 41.4333 78.0067 41.4581C78.4836 41.7316 78.6549 42.3158 78.3858 42.8005L71.7944 54.7079C71.4887 55.2921 70.8405 55.6028 70.1924 55.4661C54.6861 52.5079 42.4449 57.6164 31.1942 57.7779C22.2182 57.9147 19.271 53.6141 19.271 53.4152C19.271 53.2785 19.3444 53.2039 19.4789 53.2039C19.4789 53.2039 24.1626 53.2039 32.087 51.3022C41.0875 33.8638 49.1097 27.761 57.8412 27.761C57.8412 27.761 66.6093 27.761 68.9206 35.4548C71.7088 30.5203 72.3814 29.3395 72.3814 29.3395C73.0295 28.1711 76.6615 19.744 82.9472 11.7643C89.2451 3.80953 94.0022 1.83325 97.5364 0.354156Z" fill="#737373"/>
</g>
</g>
<defs>
<clipPath id="clip0_1579_2431">
<rect width="116.631" height="57.5481" fill="white" transform="translate(0.0883789 0.24234)"/>
</clipPath>
<clipPath id="clip1_1579_2431">
<rect width="78.2654" height="57.5481" fill="white" transform="translate(19.271 0.24234)"/>
</clipPath>
</defs>
</svg>
