<svg width="119" height="28" viewBox="0 0 119 28" fill="none" xmlns="http://www.w3.org/2000/svg">
<g clip-path="url(#clip0_1579_2425)">
<g clip-path="url(#clip1_1579_2425)">
<path d="M37.6516 25.4684L42.3812 25.5663C40.7512 25.0029 39.1705 24.317 37.6516 23.5087V25.4684ZM44.7769 24.8192V25.4684L42.3812 25.5663C46.8886 27.0974 51.0131 27.3056 54.0756 26.4482C51.6182 26.4727 48.4198 26.1298 44.7769 24.8192ZM95.2714 10.7094C97.2349 10.7094 98.8402 9.12938 98.8402 7.16969C98.8402 5.20999 97.2472 4.1689 95.2714 4.1689C93.3079 4.1689 91.7026 5.22224 91.7026 7.16969C91.7026 9.11714 93.2956 10.7094 95.2714 10.7094ZM91.6902 25.4684H98.8402V11.9342H91.6902V25.4684ZM82.5891 25.4684H89.7391V1.54781L82.5891 4.89154V25.4684ZM78.761 10.8441C76.5135 8.61496 72.5372 8.74969 72.5372 8.74969C72.5372 8.74969 68.5485 8.61496 66.3133 10.8441C64.0658 13.0733 64.2387 14.9962 64.2387 17.2866C64.2387 19.577 64.0658 21.4877 66.3133 23.7169C68.5608 25.946 72.5372 25.8113 72.5372 25.8113C72.5372 25.8113 76.5258 25.946 78.761 23.7169C81.0085 21.4877 80.8356 19.577 80.8356 17.2866C80.8232 14.984 80.9961 13.061 78.761 10.8441ZM73.8461 19.6505C73.8461 20.0914 73.6239 21.1815 72.5248 21.1815C71.4258 21.1815 71.2035 20.0914 71.2035 19.6505V14.7023C71.2035 13.6367 72.1049 13.3672 72.5248 13.3672C72.9447 13.3672 73.8461 13.6244 73.8461 14.7023V19.6505ZM60.7316 10.8441C58.4841 8.61496 54.5078 8.74969 54.5078 8.74969C54.5078 8.74969 50.5315 8.61496 48.284 10.8441C48.0494 11.0768 47.8271 11.3218 47.6295 11.579C42.9122 7.95357 38.6766 5.88364 35.0213 4.09541V1.56006L32.2428 2.85835C25.5251 0.151522 21.2523 0.629199 20.2274 2.8706C20.2274 2.8706 17.1525 6.88798 27.859 16.4415V25.4684H35.009V21.9654C34.2063 21.451 33.4036 20.8998 32.6133 20.2997C30.7857 18.9279 29.2297 17.6541 27.8713 16.4538V12.6568C29.489 14.4573 31.6377 16.5027 34.4656 18.8176L35.0213 19.2586V15.6086C35.0213 14.7635 35.2313 13.3795 36.355 13.3795C37.4787 13.3795 37.664 14.2246 37.664 15.2167V21.1815C39.8868 22.6758 42.2701 23.8884 44.7893 24.807V13.306C44.7893 11.0156 43.1345 8.7252 39.7756 8.7252C37.8245 8.71295 36.0092 9.72954 35.0213 11.4075V4.75681C40.1955 7.31666 45.382 10.4522 47.3578 11.8975C46.0982 13.6857 46.2094 15.3392 46.2094 17.2499C46.2094 19.5403 46.0365 21.451 48.284 23.6801C50.5315 25.9093 54.5078 25.7746 54.5078 25.7746C54.5078 25.7746 58.4965 25.9093 60.7316 23.6801C62.9791 21.451 62.7939 19.5403 62.7939 17.2499C62.7939 14.984 62.9791 13.061 60.7316 10.8441ZM27.859 4.89154V12.6446C21.8451 5.96937 23.0553 3.33603 23.5122 2.95634C25.1793 1.56006 28.143 1.97649 31.4649 3.21355L27.859 4.89154ZM55.8292 19.6505C55.8292 20.0914 55.6069 21.1815 54.5078 21.1815C53.4088 21.1815 53.1865 20.0914 53.1865 19.6505V14.7023C53.1865 13.6367 54.088 13.3672 54.5078 13.3672C54.9277 13.3672 55.8292 13.6244 55.8292 14.7023V19.6505Z" fill="#737373"/>
</g>
</g>
<defs>
<clipPath id="clip0_1579_2425">
<rect width="117.398" height="26.0885" fill="white" transform="translate(0.625 0.972137)"/>
</clipPath>
<clipPath id="clip1_1579_2425">
<rect width="79.0327" height="26.0885" fill="white" transform="translate(19.8076 0.972137)"/>
</clipPath>
</defs>
</svg>
