<svg width="114" height="56" viewBox="0 0 114 56" fill="none" xmlns="http://www.w3.org/2000/svg">
<g clip-path="url(#clip0_1579_2440)">
<g clip-path="url(#clip1_1579_2440)">
<path d="M81.0144 21.6181C79.1767 21.6181 77.5596 22.381 76.3712 23.5745C71.9976 20.5353 66.1048 18.579 59.5749 18.3698L62.9685 3.01407L73.774 5.45031C73.774 8.10803 75.9302 10.2736 78.5764 10.2736C81.2717 10.2736 83.4401 8.04651 83.4401 5.38879C83.4401 2.73107 81.2839 0.503998 78.5764 0.503998C76.6898 0.503998 75.0604 1.64829 74.2518 3.21094L62.3192 0.553215C61.7189 0.393259 61.1308 0.823909 60.9716 1.42682L57.2472 18.3575C50.7664 18.6282 44.9348 20.5846 40.5489 23.6237C39.3606 22.381 37.6822 21.6181 35.8445 21.6181C29.0329 21.6181 26.8032 30.7971 33.039 33.9347C32.8185 34.9067 32.7205 35.9403 32.7205 36.9738C32.7205 47.2848 44.2855 55.6394 58.4846 55.6394C72.7449 55.6394 84.31 47.2848 84.31 36.9738C84.31 35.9403 84.1997 34.8575 83.9302 33.8855C90.0435 30.7356 87.7893 21.6181 81.0144 21.6181ZM42.9256 34.5868C42.9256 31.8799 45.0818 29.702 47.7893 29.702C50.4356 29.702 52.5918 31.8676 52.5918 34.5868C52.5918 37.2445 50.4356 39.4101 47.7893 39.4101C45.0941 39.4224 42.9256 37.2445 42.9256 34.5868ZM69.1798 46.0913C64.7204 50.57 52.1385 50.57 47.6791 46.0913C47.189 45.6606 47.189 44.8978 47.6791 44.4056C48.1079 43.975 48.8674 43.975 49.2962 44.4056C52.702 47.9123 63.9976 47.9739 67.5504 44.4056C67.9792 43.975 68.7388 43.975 69.1676 44.4056C69.6699 44.8978 69.6699 45.6606 69.1798 46.0913ZM69.0818 39.4224C66.4356 39.4224 64.2794 37.2568 64.2794 34.5991C64.2794 31.8922 66.4356 29.7143 69.0818 29.7143C71.7771 29.7143 73.9455 31.8799 73.9455 34.5991C73.9333 37.2445 71.7771 39.4224 69.0818 39.4224Z" fill="#737373"/>
</g>
</g>
<defs>
<clipPath id="clip0_1579_2440">
<rect width="115.863" height="55.2462" fill="white" transform="translate(0.503906 0.39328)"/>
</clipPath>
<clipPath id="clip1_1579_2440">
<rect width="58.3154" height="55.2462" fill="white" transform="translate(29.2778 0.39328)"/>
</clipPath>
</defs>
</svg>
