<svg width="19" height="19" viewBox="0 0 19 19" fill="none" xmlns="http://www.w3.org/2000/svg">
<g clip-path="url(#clip0_1579_2700)">
<path fill-rule="evenodd" clip-rule="evenodd" d="M18.0509 9.45303C18.0509 4.54968 14.1004 0.574951 9.22797 0.574951C4.3533 0.576054 0.402832 4.54968 0.402832 9.45413C0.402832 13.8844 3.62982 17.5569 7.84718 18.223V12.0194H5.60836V9.45413H7.84939V7.49654C7.84939 5.27206 9.16732 4.04347 11.1823 4.04347C12.1484 4.04347 13.1575 4.21662 13.1575 4.21662V6.40029H12.0447C10.9495 6.40029 10.6077 7.08518 10.6077 7.7877V9.45303H13.0538L12.6634 12.0183H10.6066V18.2219C14.8239 17.5558 18.0509 13.8832 18.0509 9.45303Z" fill="#23A6F0"/>
</g>
<defs>
<clipPath id="clip0_1579_2700">
<rect width="18.4154" height="18.4154" fill="white" transform="translate(0.0192871 0.574951)"/>
</clipPath>
</defs>
</svg>
