<svg width="19" height="18" viewBox="0 0 19 18" fill="none" xmlns="http://www.w3.org/2000/svg">
<g clip-path="url(#clip0_1579_1825)">
<path d="M6.26163 17.6474C6.93966 17.6474 7.48932 17.0977 7.48932 16.4197C7.48932 15.7417 6.93966 15.192 6.26163 15.192C5.58359 15.192 5.03394 15.7417 5.03394 16.4197C5.03394 17.0977 5.58359 17.6474 6.26163 17.6474Z" fill="#737373"/>
<path d="M14.8554 17.6474C15.5334 17.6474 16.0831 17.0977 16.0831 16.4197C16.0831 15.7417 15.5334 15.192 14.8554 15.192C14.1773 15.192 13.6277 15.7417 13.6277 16.4197C13.6277 17.0977 14.1773 17.6474 14.8554 17.6474Z" fill="#737373"/>
<path d="M17.3107 3.52895H3.69563L3.19228 0.950796C3.16358 0.810056 3.08644 0.683836 2.97428 0.594108C2.86211 0.504379 2.72204 0.456824 2.57843 0.45972H0.123047V1.68741H2.07508L4.41997 13.4733C4.44867 13.614 4.52581 13.7402 4.63797 13.8299C4.75013 13.9197 4.89021 13.9672 5.03382 13.9643H16.083V12.7366H5.53717L5.03382 10.2813H16.083C16.2249 10.2847 16.3637 10.2389 16.4756 10.1516C16.5875 10.0643 16.6657 9.94093 16.6969 9.80246L17.9246 4.27784C17.9452 4.18676 17.9447 4.09219 17.9232 4.00132C17.9017 3.91046 17.8598 3.82569 17.8006 3.75348C17.7414 3.68126 17.6665 3.6235 17.5816 3.5846C17.4967 3.54569 17.4041 3.52666 17.3107 3.52895ZM15.592 9.05357H4.80055L3.94117 4.75664H16.5434L15.592 9.05357Z" fill="#737373"/>
</g>
<defs>
<clipPath id="clip0_1579_1825">
<rect width="18.4154" height="17.1878" fill="white" transform="translate(0.123047 0.459595)"/>
</clipPath>
</defs>
</svg>
