<svg width="56" height="46" viewBox="0 0 56 46" fill="none" xmlns="http://www.w3.org/2000/svg">
<g clip-path="url(#clip0_1579_2345)">
<path fill-rule="evenodd" clip-rule="evenodd" d="M11.5811 11.4308C11.5811 9.91909 12.1793 8.46924 13.2441 7.40027C14.309 6.33129 15.7532 5.73074 17.2591 5.73074H34.2934C35.7993 5.73074 37.2435 6.33129 38.3084 7.40027C39.3732 8.46924 39.9714 9.91909 39.9714 11.4308V44.2065C39.9713 44.4642 39.9015 44.7171 39.7695 44.9382C39.6376 45.1593 39.4483 45.3404 39.2219 45.462C38.9956 45.5837 38.7406 45.6414 38.4841 45.6291C38.2276 45.6168 37.9793 45.5349 37.7655 45.3921L25.7762 37.3692L13.787 45.3921C13.5732 45.5349 13.3249 45.6168 13.0684 45.6291C12.8119 45.6414 12.5569 45.5837 12.3306 45.462C12.1042 45.3404 11.9149 45.1593 11.783 44.9382C11.651 44.7171 11.5812 44.4642 11.5811 44.2065V11.4308ZM17.2591 8.5808C16.5062 8.5808 15.7841 8.88107 15.2516 9.41556C14.7192 9.95005 14.4201 10.675 14.4201 11.4308V41.5445L24.9898 34.4707C25.2228 34.315 25.4964 34.232 25.7762 34.232C26.0561 34.232 26.3297 34.315 26.5627 34.4707L37.1324 41.5445V11.4308C37.1324 10.675 36.8333 9.95005 36.3009 9.41556C35.7684 8.88107 35.0463 8.5808 34.2934 8.5808H17.2591Z" fill="#23A6F0"/>
<path fill-rule="evenodd" clip-rule="evenodd" d="M17.7195 3.15483H39.6658C40.4186 3.15483 41.1405 3.44933 41.6728 3.97354C42.2051 4.49775 42.5042 5.20873 42.5042 5.95008V38.8445L43.1371 39.2582C43.3509 39.3983 43.5991 39.4786 43.8556 39.4907C44.112 39.5028 44.3669 39.4461 44.5932 39.3268C44.8195 39.2075 45.0088 39.0299 45.1407 38.8131C45.2727 38.5962 45.3424 38.3482 45.3426 38.0954V5.95008C45.3426 4.46739 44.7445 3.04542 43.6799 1.997C42.6153 0.948585 41.1714 0.359589 39.6658 0.359589L22.6355 0.359589C21.6391 0.359614 20.6602 0.617941 19.7973 1.10861C18.9343 1.59927 18.2177 2.30499 17.7195 3.15483Z" fill="#23A6F0"/>
</g>
<defs>
<clipPath id="clip0_1579_2345">
<rect width="55.2462" height="45.4969" fill="white" transform="translate(0.455078 0.359589)"/>
</clipPath>
</defs>
</svg>
