<svg width="19" height="20" viewBox="0 0 19 20" fill="none" xmlns="http://www.w3.org/2000/svg">
<g clip-path="url(#clip0_1579_1823)">
<path fill-rule="evenodd" clip-rule="evenodd" d="M13.4823 12.5687L18.4358 17.5222C18.6099 17.6965 18.7077 17.9327 18.7076 18.179C18.7075 18.4253 18.6096 18.6615 18.4354 18.8356C18.2611 19.0098 18.0249 19.1075 17.7786 19.1074C17.5323 19.1073 17.2961 19.0094 17.122 18.8352L12.1684 13.8817C10.6877 15.0286 8.82555 15.5683 6.96094 15.3911C5.09633 15.2138 3.36928 14.3329 2.13114 12.9274C0.892989 11.522 0.236749 9.69772 0.295916 7.82564C0.355083 5.95356 1.12521 4.17433 2.44964 2.8499C3.77406 1.52548 5.55329 0.755352 7.42537 0.696184C9.29745 0.637017 11.1218 1.29326 12.5272 2.5314C13.9326 3.76955 14.8135 5.4966 14.9908 7.36121C15.1681 9.22582 14.6283 11.0879 13.4814 12.5687H13.4823ZM7.65873 13.5824C9.12388 13.5824 10.529 13.0004 11.565 11.9644C12.6011 10.9284 13.1831 9.52323 13.1831 8.05808C13.1831 6.59293 12.6011 5.18779 11.565 4.15177C10.529 3.11575 9.12388 2.53372 7.65873 2.53372C6.19358 2.53372 4.78844 3.11575 3.75242 4.15177C2.7164 5.18779 2.13437 6.59293 2.13437 8.05808C2.13437 9.52323 2.7164 10.9284 3.75242 11.9644C4.78844 13.0004 6.19358 13.5824 7.65873 13.5824Z" fill="#737373"/>
</g>
<defs>
<clipPath id="clip0_1579_1823">
<rect width="18.4154" height="18.4152" fill="white" transform="translate(0.292236 0.692261)"/>
</clipPath>
</defs>
</svg>
