<svg width="38" height="32" viewBox="0 0 38 32" fill="none" xmlns="http://www.w3.org/2000/svg">
<g clip-path="url(#clip0_1579_2323)">
<path fill-rule="evenodd" clip-rule="evenodd" d="M35.7805 30.5711C35.7805 30.5711 38.1463 30.5711 38.1463 28.184C38.1463 25.7968 35.7805 18.6352 26.317 18.6352C16.8535 18.6352 14.4877 25.7968 14.4877 28.184C14.4877 30.5711 16.8535 30.5711 16.8535 30.5711H35.7805ZM16.9056 28.184H35.7284C35.7395 28.1827 35.7505 28.1811 35.7615 28.1792L35.7805 28.1744C35.7757 27.5442 35.3854 25.7156 33.9824 24.0685C32.6764 22.524 30.3816 21.0224 26.317 21.0224C22.2548 21.0224 19.9599 22.5263 18.6516 24.0685C17.2486 25.7156 16.8559 27.5466 16.8535 28.1744C16.8709 28.1778 16.8882 28.181 16.9056 28.184ZM26.317 13.8609C27.5719 13.8609 28.7755 13.3579 29.6628 12.4625C30.5502 11.5671 31.0487 10.3528 31.0487 9.08653C31.0487 7.82029 30.5502 6.60591 29.6628 5.71054C28.7755 4.81518 27.5719 4.31217 26.317 4.31217C25.0621 4.31217 23.8585 4.81518 22.9712 5.71054C22.0838 6.60591 21.5853 7.82029 21.5853 9.08653C21.5853 10.3528 22.0838 11.5671 22.9712 12.4625C23.8585 13.3579 25.0621 13.8609 26.317 13.8609ZM33.4146 9.08653C33.4146 10.027 33.231 10.9583 32.8743 11.8271C32.5176 12.696 31.9948 13.4855 31.3358 14.1505C30.6767 14.8155 29.8943 15.343 29.0331 15.7029C28.172 16.0628 27.2491 16.2481 26.317 16.2481C25.3849 16.2481 24.462 16.0628 23.6009 15.7029C22.7397 15.343 21.9573 14.8155 21.2982 14.1505C20.6392 13.4855 20.1164 12.696 19.7597 11.8271C19.403 10.9583 19.2194 10.027 19.2194 9.08653C19.2194 7.18717 19.9672 5.3656 21.2982 4.02255C22.6293 2.67951 24.4346 1.92499 26.317 1.92499C28.1994 1.92499 30.0047 2.67951 31.3358 4.02255C32.6668 5.3656 33.4146 7.18717 33.4146 9.08653ZM16.7021 19.3037C15.7557 19.003 14.7802 18.8053 13.7921 18.714C13.2369 18.6608 12.6795 18.6345 12.1218 18.6352C2.65835 18.6352 0.29248 25.7968 0.29248 28.184C0.29248 29.7762 1.08031 30.5711 2.65835 30.5711H12.6328C12.2821 29.8259 12.1072 29.0088 12.1218 28.184C12.1218 25.7729 13.0137 23.3093 14.7006 21.2516C15.2755 20.5498 15.945 19.8933 16.7021 19.3037ZM11.9325 21.0224C7.98627 21.0702 5.7458 22.5502 4.4564 24.0685C3.04398 25.7252 2.65835 27.5609 2.65835 28.184H9.75594C9.75594 25.6894 10.5201 23.2043 11.9325 21.0224ZM3.84128 10.2801C3.84128 8.38076 4.58906 6.55919 5.92012 5.21614C7.25117 3.87309 9.05647 3.11858 10.9389 3.11858C12.8213 3.11858 14.6266 3.87309 15.9576 5.21614C17.2887 6.55919 18.0365 8.38076 18.0365 10.2801C18.0365 12.1795 17.2887 14.001 15.9576 15.3441C14.6266 16.6871 12.8213 17.4417 10.9389 17.4417C9.05647 17.4417 7.25117 16.6871 5.92012 15.3441C4.58906 14.001 3.84128 12.1795 3.84128 10.2801ZM10.9389 5.50576C9.68394 5.50576 8.48041 6.00877 7.59304 6.90413C6.70566 7.7995 6.20714 9.01388 6.20714 10.2801C6.20714 11.5464 6.70566 12.7607 7.59304 13.6561C8.48041 14.5515 9.68394 15.0545 10.9389 15.0545C12.1938 15.0545 13.3973 14.5515 14.2847 13.6561C15.1721 12.7607 15.6706 11.5464 15.6706 10.2801C15.6706 9.01388 15.1721 7.7995 14.2847 6.90413C13.3973 6.00877 12.1938 5.50576 10.9389 5.50576Z" fill="#23A6F0"/>
</g>
<defs>
<clipPath id="clip0_1579_2323">
<rect width="36.8308" height="30.3313" fill="white" transform="translate(0.54834 0.901917)"/>
</clipPath>
</defs>
</svg>
