<svg width="25" height="25" viewBox="0 0 25 25" fill="none" xmlns="http://www.w3.org/2000/svg">
<rect x="0.254883" y="0.165283" width="24.5538" height="24.5538" rx="12.2769" fill="#2DC071"/>
<g clip-path="url(#clip0_1579_2473)">
<path fill-rule="evenodd" clip-rule="evenodd" d="M18.897 7.99518C18.9467 8.04475 18.9861 8.10365 19.013 8.16849C19.0399 8.23333 19.0538 8.30284 19.0538 8.37304C19.0538 8.44324 19.0399 8.51275 19.013 8.57759C18.9861 8.64243 18.9467 8.70133 18.897 8.75091L11.4251 16.2228C11.3755 16.2725 11.3166 16.312 11.2518 16.3389C11.1869 16.3658 11.1174 16.3796 11.0472 16.3796C10.977 16.3796 10.9075 16.3658 10.8426 16.3389C10.7778 16.312 10.7189 16.2725 10.6693 16.2228L6.93337 12.4869C6.83316 12.3867 6.77686 12.2507 6.77686 12.109C6.77686 11.9673 6.83316 11.8314 6.93337 11.7311C7.03359 11.6309 7.16951 11.5746 7.31124 11.5746C7.45297 11.5746 7.58889 11.6309 7.6891 11.7311L11.0472 15.0903L18.1413 7.99518C18.1908 7.94547 18.2497 7.90604 18.3146 7.87913C18.3794 7.85223 18.4489 7.83838 18.5191 7.83838C18.5893 7.83838 18.6588 7.85223 18.7237 7.87913C18.7885 7.90604 18.8474 7.94547 18.897 7.99518Z" fill="white"/>
</g>
<defs>
<clipPath id="clip0_1579_2473">
<rect width="12.2769" height="8.44039" fill="white" transform="translate(6.39331 7.83838)"/>
</clipPath>
</defs>
</svg>
