<svg width="25" height="25" viewBox="0 0 25 25" fill="none" xmlns="http://www.w3.org/2000/svg">
<rect x="0.254883" y="0.355591" width="24.5538" height="24.5538" rx="12.2769" fill="#BDBDBD"/>
<g clip-path="url(#clip0_1579_2488)">
<path fill-rule="evenodd" clip-rule="evenodd" d="M18.897 8.18548C18.9467 8.23506 18.9861 8.29396 19.013 8.3588C19.0399 8.42364 19.0538 8.49315 19.0538 8.56335C19.0538 8.63355 19.0399 8.70306 19.013 8.7679C18.9861 8.83274 18.9467 8.89164 18.897 8.94121L11.4251 16.4131C11.3755 16.4628 11.3166 16.5023 11.2518 16.5292C11.1869 16.5561 11.1174 16.5699 11.0472 16.5699C10.977 16.5699 10.9075 16.5561 10.8426 16.5292C10.7778 16.5023 10.7189 16.4628 10.6693 16.4131L6.93337 12.6772C6.83316 12.577 6.77686 12.441 6.77686 12.2993C6.77686 12.1576 6.83316 12.0217 6.93337 11.9214C7.03359 11.8212 7.16951 11.7649 7.31124 11.7649C7.45297 11.7649 7.58889 11.8212 7.6891 11.9214L11.0472 15.2806L18.1413 8.18548C18.1908 8.13578 18.2497 8.09635 18.3146 8.06944C18.3794 8.04254 18.4489 8.02869 18.5191 8.02869C18.5893 8.02869 18.6588 8.04254 18.7237 8.06944C18.7885 8.09635 18.8474 8.13578 18.897 8.18548Z" fill="white"/>
</g>
<defs>
<clipPath id="clip0_1579_2488">
<rect width="12.2769" height="8.44039" fill="white" transform="translate(6.39331 8.02869)"/>
</clipPath>
</defs>
</svg>
