<svg width="20" height="19" viewBox="0 0 20 19" fill="none" xmlns="http://www.w3.org/2000/svg">
<g clip-path="url(#clip0_1579_2703)">
<path d="M10.372 1.34229C8.08152 1.34229 7.79349 1.35284 6.89353 1.39293C5.99358 1.43513 5.38059 1.57651 4.84357 1.78541C4.28028 1.99728 3.77005 2.32963 3.34857 2.75921C2.91925 3.18091 2.58694 3.69108 2.37476 4.25422C2.16586 4.79018 2.02343 5.40422 1.98228 6.30101C1.94219 7.20308 1.93164 7.49005 1.93164 9.78373C1.93164 12.0753 1.94219 12.3623 1.98228 13.2622C2.02448 14.1611 2.16586 14.7741 2.37476 15.3111C2.59105 15.8661 2.87907 16.3366 3.34857 16.8061C3.81701 17.2756 4.28756 17.5647 4.84252 17.7799C5.38059 17.9888 5.99252 18.1313 6.89142 18.1724C7.79243 18.2125 8.07941 18.2231 10.372 18.2231C12.6646 18.2231 12.9506 18.2125 13.8516 18.1724C14.7494 18.1302 15.3645 17.9888 15.9015 17.7799C16.4645 17.568 16.9743 17.2356 17.3955 16.8061C17.865 16.3366 18.153 15.8661 18.3693 15.3111C18.5771 14.7741 18.7196 14.1611 18.7618 13.2622C18.8019 12.3623 18.8124 12.0753 18.8124 9.78267C18.8124 7.49005 18.8019 7.20308 18.7618 6.30207C18.7196 5.40422 18.5771 4.79018 18.3693 4.25422C18.1571 3.69106 17.8248 3.18089 17.3955 2.75921C16.9741 2.32947 16.4639 1.9971 15.9005 1.78541C15.3624 1.57651 14.7484 1.43407 13.8505 1.39293C12.9495 1.35284 12.6636 1.34229 10.3699 1.34229H10.3731H10.372ZM9.61556 2.86366H10.3731C12.6267 2.86366 12.8936 2.87105 13.783 2.9122C14.6059 2.94912 15.0533 3.08733 15.3508 3.20234C15.7443 3.35532 16.026 3.5389 16.3214 3.83431C16.6169 4.12972 16.7994 4.41037 16.9524 4.80495C17.0684 5.10142 17.2056 5.54876 17.2425 6.3717C17.2836 7.26111 17.2921 7.52803 17.2921 9.78056C17.2921 12.0331 17.2836 12.3011 17.2425 13.1905C17.2056 14.0134 17.0674 14.4597 16.9524 14.7572C16.817 15.1237 16.6011 15.4551 16.3204 15.7268C16.025 16.0222 15.7443 16.2047 15.3497 16.3577C15.0543 16.4738 14.607 16.6109 13.783 16.6489C12.8936 16.689 12.6267 16.6985 10.3731 16.6985C8.1195 16.6985 7.85152 16.689 6.96211 16.6489C6.13917 16.6109 5.69289 16.4738 5.39536 16.3577C5.02873 16.2226 4.69705 16.007 4.42472 15.7268C4.14381 15.4546 3.9275 15.123 3.79169 14.7562C3.67669 14.4597 3.53848 14.0124 3.50155 13.1894C3.46146 12.3 3.45302 12.0331 3.45302 9.77845C3.45302 7.52487 3.46146 7.25899 3.50155 6.36959C3.53953 5.54665 3.67669 5.09931 3.79275 4.80179C3.94573 4.40826 4.12931 4.12656 4.42472 3.83114C4.72013 3.53573 5.00078 3.35321 5.39536 3.20022C5.69289 3.08417 6.13917 2.94701 6.96211 2.90903C7.74074 2.87316 8.04248 2.86261 9.61556 2.86155V2.86366ZM14.8781 4.26477C14.7451 4.26477 14.6134 4.29097 14.4905 4.34187C14.3677 4.39277 14.256 4.46737 14.1619 4.56142C14.0679 4.65548 13.9933 4.76713 13.9424 4.89002C13.8915 5.0129 13.8653 5.14461 13.8653 5.27761C13.8653 5.41062 13.8915 5.54233 13.9424 5.66521C13.9933 5.7881 14.0679 5.89975 14.1619 5.9938C14.256 6.08786 14.3677 6.16246 14.4905 6.21336C14.6134 6.26426 14.7451 6.29046 14.8781 6.29046C15.1468 6.29046 15.4044 6.18375 15.5943 5.9938C15.7843 5.80386 15.891 5.54624 15.891 5.27761C15.891 5.00899 15.7843 4.75137 15.5943 4.56142C15.4044 4.37148 15.1468 4.26477 14.8781 4.26477ZM10.3731 5.44853C9.79815 5.43956 9.22719 5.54505 8.69342 5.75887C8.15966 5.97268 7.67376 6.29054 7.26401 6.69394C6.85427 7.09734 6.52887 7.57822 6.30676 8.10858C6.08465 8.63895 5.97026 9.2082 5.97026 9.7832C5.97026 10.3582 6.08465 10.9274 6.30676 11.4578C6.52887 11.9882 6.85427 12.4691 7.26401 12.8725C7.67376 13.2759 8.15966 13.5937 8.69342 13.8075C9.22719 14.0213 9.79815 14.1268 10.3731 14.1179C11.511 14.1001 12.5963 13.6356 13.3947 12.8246C14.1931 12.0137 14.6406 10.9212 14.6406 9.7832C14.6406 8.64515 14.1931 7.55273 13.3947 6.74176C12.5963 5.93078 11.511 5.46629 10.3731 5.44853ZM10.3731 6.96886C11.1194 6.96886 11.8351 7.26531 12.3627 7.793C12.8904 8.3207 13.1869 9.0364 13.1869 9.78267C13.1869 10.5289 12.8904 11.2446 12.3627 11.7723C11.8351 12.3 11.1194 12.5965 10.3731 12.5965C9.62681 12.5965 8.91111 12.3 8.38341 11.7723C7.85572 11.2446 7.55927 10.5289 7.55927 9.78267C7.55927 9.0364 7.85572 8.3207 8.38341 7.793C8.91111 7.26531 9.62681 6.96886 10.3731 6.96886Z" fill="#23A6F0"/>
</g>
<defs>
<clipPath id="clip0_1579_2703">
<rect width="18.4154" height="18.4154" fill="white" transform="translate(0.780762 0.574951)"/>
</clipPath>
</defs>
</svg>
