<svg width="100" height="18" viewBox="0 0 100 18" fill="none" xmlns="http://www.w3.org/2000/svg">
<g clip-path="url(#clip0_1579_2371)">
<path d="M15.5431 6.6044C15.4989 6.4741 15.4175 6.35961 15.3089 6.27506C15.2003 6.19052 15.0694 6.13961 14.9322 6.12863L10.9199 5.80981L9.18358 1.96635C9.12829 1.84256 9.03835 1.73742 8.92462 1.66362C8.81089 1.58982 8.67823 1.5505 8.54265 1.55043C8.40707 1.55036 8.27437 1.58952 8.16056 1.6632C8.04675 1.73688 7.95669 1.84192 7.90126 1.96565L6.16498 5.80981L2.15261 6.12863C2.0178 6.13931 1.88893 6.1886 1.7814 6.27061C1.67387 6.35262 1.59224 6.46387 1.54628 6.59105C1.50033 6.71823 1.49198 6.85596 1.52225 6.98776C1.55252 7.11956 1.62012 7.23985 1.71696 7.33424L4.68207 10.2248L3.63341 14.7657C3.60157 14.9031 3.61177 15.047 3.6627 15.1786C3.71363 15.3101 3.80293 15.4234 3.91901 15.5036C4.0351 15.5838 4.17261 15.6272 4.31369 15.6283C4.45478 15.6294 4.59293 15.588 4.71023 15.5096L8.54242 12.9548L12.3746 15.5096C12.4945 15.5892 12.6359 15.6302 12.7797 15.627C12.9236 15.6239 13.0631 15.5767 13.1793 15.4919C13.2956 15.4072 13.3831 15.2888 13.4302 15.1528C13.4772 15.0168 13.4814 14.8697 13.4423 14.7312L12.155 10.2269L15.3475 7.35395C15.5565 7.16533 15.6332 6.87114 15.5431 6.6044Z" fill="#F3CD03"/>
<path d="M36.2719 6.6044C36.2277 6.4741 36.1462 6.35961 36.0377 6.27506C35.9291 6.19052 35.7982 6.13961 35.661 6.12863L31.6486 5.80981L29.9123 1.96635C29.857 1.84256 29.7671 1.73742 29.6534 1.66362C29.5396 1.58982 29.407 1.5505 29.2714 1.55043C29.1358 1.55036 29.0031 1.58952 28.8893 1.6632C28.7755 1.73688 28.6854 1.84192 28.63 1.96565L26.8937 5.80981L22.8814 6.12863C22.7466 6.13931 22.6177 6.1886 22.5102 6.27061C22.4026 6.35262 22.321 6.46387 22.275 6.59105C22.2291 6.71823 22.2207 6.85596 22.251 6.98776C22.2813 7.11956 22.3489 7.23985 22.4457 7.33424L25.4108 10.2248L24.3622 14.7657C24.3303 14.9031 24.3405 15.047 24.3915 15.1786C24.4424 15.3101 24.5317 15.4234 24.6478 15.5036C24.7639 15.5838 24.9014 15.6272 25.0425 15.6283C25.1835 15.6294 25.3217 15.588 25.439 15.5096L29.2712 12.9548L33.1034 15.5096C33.2233 15.5892 33.3646 15.6302 33.5085 15.627C33.6524 15.6239 33.7918 15.5767 33.9081 15.4919C34.0244 15.4072 34.1119 15.2888 34.1589 15.1528C34.2059 15.0168 34.2102 14.8697 34.171 14.7312L32.8838 10.2269L36.0762 7.35395C36.2853 7.16533 36.362 6.87114 36.2719 6.6044Z" fill="#F3CD03"/>
<path d="M56.9977 6.6044C56.9535 6.4741 56.8721 6.35961 56.7635 6.27506C56.6549 6.19052 56.524 6.13961 56.3868 6.12863L52.3745 5.80981L50.6382 1.96635C50.5829 1.84256 50.4929 1.73742 50.3792 1.66362C50.2655 1.58982 50.1328 1.5505 49.9972 1.55043C49.8617 1.55036 49.729 1.58952 49.6151 1.6632C49.5013 1.73688 49.4113 1.84192 49.3558 1.96565L47.6196 5.80981L43.6072 6.12863C43.4724 6.13931 43.3435 6.1886 43.236 6.27061C43.1285 6.35262 43.0468 6.46387 43.0009 6.59105C42.9549 6.71823 42.9466 6.85596 42.9768 6.98776C43.0071 7.11956 43.0747 7.23985 43.1716 7.33424L46.1367 10.2248L45.088 14.7657C45.0562 14.9031 45.0664 15.047 45.1173 15.1786C45.1682 15.3101 45.2575 15.4234 45.3736 15.5036C45.4897 15.5838 45.6272 15.6272 45.7683 15.6283C45.9094 15.6294 46.0475 15.588 46.1648 15.5096L49.997 12.9548L53.8292 15.5096C53.9491 15.5892 54.0905 15.6302 54.2343 15.627C54.3782 15.6239 54.5177 15.5767 54.6339 15.4919C54.7502 15.4072 54.8377 15.2888 54.8847 15.1528C54.9318 15.0168 54.936 14.8697 54.8969 14.7312L53.6096 10.2269L56.8021 7.35395C57.0111 7.16533 57.0878 6.87114 56.9977 6.6044Z" fill="#F3CD03"/>
<path d="M77.7257 6.6044C77.6815 6.4741 77.6001 6.35961 77.4915 6.27506C77.383 6.19052 77.252 6.13961 77.1148 6.12863L73.1025 5.80981L71.3662 1.96635C71.3109 1.84256 71.221 1.73742 71.1072 1.66362C70.9935 1.58982 70.8608 1.5505 70.7253 1.55043C70.5897 1.55036 70.457 1.58952 70.3432 1.6632C70.2294 1.73688 70.1393 1.84192 70.0839 1.96565L68.3476 5.80981L64.3352 6.12863C64.2004 6.13931 64.0715 6.1886 63.964 6.27061C63.8565 6.35262 63.7749 6.46387 63.7289 6.59105C63.6829 6.71823 63.6746 6.85596 63.7049 6.98776C63.7351 7.11956 63.8027 7.23985 63.8996 7.33424L66.8647 10.2248L65.816 14.7657C65.7842 14.9031 65.7944 15.047 65.8453 15.1786C65.8962 15.3101 65.9855 15.4234 66.1016 15.5036C66.2177 15.5838 66.3552 15.6272 66.4963 15.6283C66.6374 15.6294 66.7756 15.588 66.8928 15.5096L70.725 12.9548L74.5572 15.5096C74.6771 15.5892 74.8185 15.6302 74.9624 15.627C75.1062 15.6239 75.2457 15.5767 75.362 15.4919C75.4782 15.4072 75.5658 15.2888 75.6128 15.1528C75.6598 15.0168 75.664 14.8697 75.6249 14.7312L74.3376 10.2269L77.5301 7.35395C77.7391 7.16533 77.8158 6.87114 77.7257 6.6044Z" fill="#F3CD03"/>
<path d="M87.5942 10.2249L86.5455 14.7658C86.513 14.9033 86.5228 15.0474 86.5735 15.1793C86.6242 15.3111 86.7134 15.4247 86.8297 15.505C86.9459 15.5853 87.0836 15.6288 87.2249 15.6296C87.3662 15.6304 87.5044 15.5887 87.6216 15.5097L91.4538 12.9549L95.286 15.5097C95.4059 15.5893 95.5473 15.6303 95.6911 15.6271C95.835 15.624 95.9744 15.5768 96.0907 15.4921C96.207 15.4073 96.2945 15.2889 96.3415 15.1529C96.3885 15.0169 96.3928 14.8698 96.3537 14.7313L95.0664 10.227L98.2588 7.35405C98.3611 7.26199 98.4341 7.14197 98.4689 7.00885C98.5036 6.87572 98.4986 6.73533 98.4544 6.60503C98.4102 6.47473 98.3288 6.36023 98.2203 6.27571C98.1117 6.19118 97.9808 6.14033 97.8436 6.12944L93.8312 5.80992L92.095 1.96646C92.0396 1.8427 91.9496 1.73761 91.8358 1.66387C91.7221 1.59013 91.5894 1.55089 91.4538 1.55089C91.3182 1.55089 91.1855 1.59013 91.0718 1.66387C90.958 1.73761 90.868 1.8427 90.8126 1.96646L89.0764 5.80992L85.064 6.12874C84.9292 6.13942 84.8003 6.18871 84.6928 6.27072C84.5852 6.35272 84.5036 6.46397 84.4577 6.59116C84.4117 6.71834 84.4034 6.85607 84.4336 6.98787C84.4639 7.11967 84.5315 7.23996 84.6283 7.33435L87.5942 10.2249ZM89.6021 7.18022C89.7277 7.17032 89.8484 7.12681 89.9514 7.05425C90.0544 6.98168 90.136 6.88274 90.1877 6.76779L91.4538 3.96596L92.7199 6.76779C92.7716 6.88274 92.8532 6.98168 92.9562 7.05425C93.0592 7.12681 93.1799 7.17032 93.3055 7.18022L96.101 7.40191L93.7989 9.4739C93.599 9.65408 93.5195 9.93137 93.5926 10.1904L94.4745 13.2765L91.8451 11.5234C91.7297 11.4459 91.5938 11.4045 91.4549 11.4045C91.3159 11.4045 91.18 11.4459 91.0646 11.5234L88.317 13.3554L89.0559 10.1559C89.083 10.0382 89.0794 9.91555 89.0454 9.79968C89.0114 9.68382 88.9481 9.57866 88.8617 9.49431L86.7236 7.40965L89.6021 7.18022Z" fill="#F3CD03"/>
</g>
<defs>
<clipPath id="clip0_1579_2371">
<rect width="99.8023" height="16.8912" fill="white" transform="translate(0.0966797 0.144226)"/>
</clipPath>
</defs>
</svg>
