<svg width="19" height="16" viewBox="0 0 19 16" fill="none" xmlns="http://www.w3.org/2000/svg">
<g clip-path="url(#clip0_1579_2706)">
<path d="M6.99603 14.6885C13.3664 14.6885 16.8512 9.37346 16.8512 4.77234C16.8512 4.6236 16.8512 4.47275 16.8449 4.32402C17.5234 3.82947 18.1089 3.21719 18.5741 2.51586C17.9404 2.79723 17.2688 2.98267 16.5811 3.06617C17.3055 2.63021 17.848 1.94427 18.1078 1.13585C17.4273 1.5418 16.6824 1.82678 15.9059 1.9783C15.3839 1.41846 14.693 1.04758 13.9404 0.923114C13.1879 0.798646 12.4155 0.927537 11.743 1.28982C11.0706 1.65211 10.5355 2.22757 10.2207 2.92706C9.90595 3.62656 9.82902 4.41106 10.0019 5.15904C8.62475 5.08951 7.27753 4.72928 6.04759 4.10171C4.81764 3.47414 3.73243 2.59325 2.86235 1.51617C2.42065 2.28435 2.28585 3.19302 2.48533 4.05764C2.68481 4.92227 3.20361 5.67804 3.93639 6.17148C3.38728 6.15269 2.85024 6.00422 2.36859 5.73803V5.78584C2.36954 6.59056 2.64639 7.37028 3.15236 7.99318C3.65832 8.61609 4.36237 9.04399 5.14548 9.20454C4.84823 9.287 4.54118 9.3281 4.23286 9.32671C4.0155 9.32738 3.79858 9.3071 3.58506 9.26616C3.8064 9.95888 4.23737 10.5645 4.81762 10.9983C5.39787 11.4321 6.09833 11.6723 6.82089 11.6852C5.5934 12.656 4.07714 13.1825 2.5163 13.1799C2.24127 13.1811 1.96643 13.1651 1.69336 13.1321C3.27753 14.1491 5.1173 14.6891 6.99603 14.6885Z" fill="#23A6F0"/>
</g>
<defs>
<clipPath id="clip0_1579_2706">
<rect width="18.4154" height="15.1656" fill="white" transform="translate(0.542358 0.199951)"/>
</clipPath>
</defs>
</svg>
