<svg width="37" height="30" viewBox="0 0 37 30" fill="none" xmlns="http://www.w3.org/2000/svg">
<path fill-rule="evenodd" clip-rule="evenodd" d="M35.2438 29.5711C35.2438 29.5711 37.6097 29.5711 37.6097 27.184C37.6097 24.7968 35.2438 17.6352 25.7804 17.6352C16.3169 17.6352 13.9511 24.7968 13.9511 27.184C13.9511 29.5711 16.3169 29.5711 16.3169 29.5711H35.2438ZM16.369 27.184H35.1918C35.2029 27.1827 35.2139 27.1811 35.2249 27.1792L35.2438 27.1744C35.2391 26.5442 34.8487 24.7156 33.4458 23.0685C32.1398 21.524 29.8449 20.0224 25.7804 20.0224C21.7182 20.0224 19.4233 21.5263 18.115 23.0685C16.712 24.7156 16.3193 26.5466 16.3169 27.1744C16.3342 27.1778 16.3516 27.181 16.369 27.184ZM25.7804 12.8609C27.0353 12.8609 28.2388 12.3579 29.1262 11.4625C30.0136 10.5671 30.5121 9.35277 30.5121 8.08653C30.5121 6.82029 30.0136 5.60591 29.1262 4.71054C28.2388 3.81518 27.0353 3.31217 25.7804 3.31217C24.5254 3.31217 23.3219 3.81518 22.4345 4.71054C21.5472 5.60591 21.0486 6.82029 21.0486 8.08653C21.0486 9.35277 21.5472 10.5671 22.4345 11.4625C23.3219 12.3579 24.5254 12.8609 25.7804 12.8609ZM32.878 8.08653C32.878 9.02699 32.6944 9.95825 32.3377 10.8271C31.981 11.696 31.4582 12.4855 30.7991 13.1505C30.1401 13.8155 29.3576 14.343 28.4965 14.7029C27.6354 15.0628 26.7124 15.2481 25.7804 15.2481C24.8483 15.2481 23.9254 15.0628 23.0642 14.7029C22.2031 14.343 21.4207 13.8155 20.7616 13.1505C20.1025 12.4855 19.5797 11.696 19.2231 10.8271C18.8664 9.95825 18.6828 9.02699 18.6828 8.08653C18.6828 6.18717 19.4306 4.3656 20.7616 3.02255C22.0927 1.67951 23.898 0.924988 25.7804 0.924988C27.6628 0.924988 29.4681 1.67951 30.7991 3.02255C32.1302 4.3656 32.878 6.18717 32.878 8.08653ZM16.1655 18.3037C15.2191 18.003 14.2436 17.8053 13.2555 17.714C12.7003 17.6608 12.1429 17.6345 11.5852 17.6352C2.12172 17.6352 -0.244141 24.7968 -0.244141 27.184C-0.244141 28.7762 0.543693 29.5711 2.12172 29.5711H12.0962C11.7455 28.8259 11.5706 28.0088 11.5852 27.184C11.5852 24.7729 12.4771 22.3093 14.164 20.2516C14.7389 19.5498 15.4084 18.8933 16.1655 18.3037ZM11.3959 20.0224C7.44965 20.0702 5.20918 21.5502 3.91978 23.0685C2.50736 24.7252 2.12172 26.5609 2.12172 27.184H9.21932C9.21932 24.6894 9.98349 22.2043 11.3959 20.0224ZM3.30466 9.28012C3.30466 7.38076 4.05244 5.55919 5.3835 4.21614C6.71455 2.87309 8.51985 2.11858 10.4023 2.11858C12.2847 2.11858 14.09 2.87309 15.421 4.21614C16.7521 5.55919 17.4998 7.38076 17.4998 9.28012C17.4998 11.1795 16.7521 13.001 15.421 14.3441C14.09 15.6871 12.2847 16.4417 10.4023 16.4417C8.51985 16.4417 6.71455 15.6871 5.3835 14.3441C4.05244 13.001 3.30466 11.1795 3.30466 9.28012ZM10.4023 4.50576C9.14732 4.50576 7.94379 5.00877 7.05641 5.90413C6.16904 6.7995 5.67052 8.01388 5.67052 9.28012C5.67052 10.5464 6.16904 11.7607 7.05641 12.6561C7.94379 13.5515 9.14732 14.0545 10.4023 14.0545C11.6572 14.0545 12.8607 13.5515 13.7481 12.6561C14.6355 11.7607 15.134 10.5464 15.134 9.28012C15.134 8.01388 14.6355 6.7995 13.7481 5.90413C12.8607 5.00877 11.6572 4.50576 10.4023 4.50576Z" fill="white"/>
</svg>
