<svg width="19" height="24" viewBox="0 0 19 24" fill="none" xmlns="http://www.w3.org/2000/svg">
<path d="M9.2941 14.7399C11.8331 14.7399 13.8979 12.6751 13.8979 10.1361C13.8979 7.59708 11.8331 5.53228 9.2941 5.53228C6.75511 5.53228 4.6903 7.59708 4.6903 10.1361C4.6903 12.6751 6.75511 14.7399 9.2941 14.7399ZM9.2941 7.83418C10.5636 7.83418 11.596 8.86658 11.596 10.1361C11.596 11.4056 10.5636 12.438 9.2941 12.438C8.0246 12.438 6.9922 11.4056 6.9922 10.1361C6.9922 8.86658 8.0246 7.83418 9.2941 7.83418Z" fill="#23A6F0"/>
<path d="M8.62657 23.7334C8.82136 23.8725 9.05475 23.9473 9.29412 23.9473C9.53349 23.9473 9.76687 23.8725 9.96167 23.7334C10.3116 23.4859 18.5351 17.5482 18.5017 10.1361C18.5017 5.05922 14.371 0.928467 9.29412 0.928467C4.21728 0.928467 0.0865271 5.05922 0.0865271 10.1303C0.0531496 17.5482 8.27668 23.4859 8.62657 23.7334ZM9.29412 3.23037C13.1026 3.23037 16.1998 6.32757 16.1998 10.1418C16.224 15.2497 11.1494 19.8363 9.29412 21.3406C7.43994 19.8351 2.36425 15.2474 2.38842 10.1361C2.38842 6.32757 5.48563 3.23037 9.29412 3.23037Z" fill="#23A6F0"/>
</svg>
