<svg width="18" height="19" viewBox="0 0 18 19" fill="none" xmlns="http://www.w3.org/2000/svg">
<path d="M13.5489 10.3033C13.4634 10.2177 13.362 10.1498 13.2503 10.1035C13.1386 10.0571 13.0188 10.0333 12.8979 10.0333C12.777 10.0333 12.6572 10.0571 12.5455 10.1035C12.4338 10.1498 12.3323 10.2177 12.2469 10.3033L10.7792 11.7709C10.0988 11.5684 8.82905 11.108 8.0243 10.3033C7.21956 9.49851 6.75918 8.22878 6.55661 7.54834L8.0243 6.08065C8.10988 5.99521 8.17778 5.89374 8.2241 5.78204C8.27043 5.67034 8.29427 5.5506 8.29427 5.42967C8.29427 5.30874 8.27043 5.189 8.2241 5.0773C8.17778 4.9656 8.10988 4.86413 8.0243 4.77869L4.34126 1.09565C4.25583 1.01007 4.15436 0.942176 4.04265 0.895852C3.93095 0.849528 3.81121 0.825684 3.69028 0.825684C3.56936 0.825684 3.44962 0.849528 3.33792 0.895852C3.22621 0.942176 3.12474 1.01007 3.03931 1.09565L0.542206 3.59275C0.192318 3.94264 -0.00472529 4.42328 0.00264079 4.91404C0.0238183 6.22521 0.370945 10.7793 3.96007 14.3684C7.54919 17.9575 12.1033 18.3037 13.4154 18.3258H13.4411C13.9273 18.3258 14.3868 18.1343 14.7348 17.7863L17.2319 15.2892C17.3175 15.2037 17.3854 15.1023 17.4317 14.9906C17.478 14.8789 17.5019 14.7591 17.5019 14.6382C17.5019 14.5173 17.478 14.3975 17.4317 14.2858C17.3854 14.1741 17.3175 14.0726 17.2319 13.9872L13.5489 10.3033ZM13.4319 16.4834C12.2828 16.4641 8.35117 16.1556 5.26202 13.0655C2.16274 9.96625 1.86258 6.0208 1.84416 4.89471L3.69028 3.04858L6.07137 5.42967L4.88083 6.62021C4.7726 6.72835 4.69303 6.86176 4.6493 7.00837C4.60558 7.15499 4.59907 7.31019 4.63038 7.45994C4.65248 7.56583 5.19297 10.0767 6.72143 11.6052C8.24989 13.1337 10.7608 13.6742 10.8667 13.6963C11.0164 13.7284 11.1717 13.7225 11.3185 13.6789C11.4652 13.6352 11.5986 13.5554 11.7064 13.4467L12.8979 12.2562L15.279 14.6373L13.4319 16.4834Z" fill="#23A6F0"/>
</svg>
