<svg width="57" height="44" viewBox="0 0 57 44" fill="none" xmlns="http://www.w3.org/2000/svg">
<path fill-rule="evenodd" clip-rule="evenodd" d="M53.7669 43.8634C53.7669 43.8634 57.3157 43.8634 57.3157 40.2827C57.3157 36.7019 53.7669 25.9596 39.5717 25.9596C25.3765 25.9596 21.8277 36.7019 21.8277 40.2827C21.8277 43.8634 25.3765 43.8634 25.3765 43.8634H53.7669ZM25.4546 40.2827H53.6888C53.7054 40.2807 53.722 40.2783 53.7385 40.2755L53.7669 40.2683C53.7598 39.323 53.1742 36.5801 51.0698 34.1094C49.1109 31.7927 45.6685 29.5403 39.5717 29.5403C33.4784 29.5403 30.0361 31.7962 28.0736 34.1094C25.9691 36.5801 25.38 39.3266 25.3765 40.2683C25.4025 40.2734 25.4285 40.2782 25.4546 40.2827ZM39.5717 18.798C41.4541 18.798 43.2594 18.0435 44.5904 16.7005C45.9215 15.3574 46.6693 13.5359 46.6693 11.6365C46.6693 9.73715 45.9215 7.91558 44.5904 6.57253C43.2594 5.22948 41.4541 4.47496 39.5717 4.47496C37.6893 4.47496 35.884 5.22948 34.5529 6.57253C33.2219 7.91558 32.4741 9.73715 32.4741 11.6365C32.4741 13.5359 33.2219 15.3574 34.5529 16.7005C35.884 18.0435 37.6893 18.798 39.5717 18.798ZM50.2181 11.6365C50.2181 13.0472 49.9427 14.4441 49.4077 15.7474C48.8726 17.0507 48.0884 18.2349 47.0998 19.2325C46.1112 20.23 44.9376 21.0213 43.6459 21.5611C42.3542 22.101 40.9698 22.3788 39.5717 22.3788C38.1736 22.3788 36.7892 22.101 35.4975 21.5611C34.2058 21.0213 33.0322 20.23 32.0436 19.2325C31.0549 18.2349 30.2707 17.0507 29.7357 15.7474C29.2007 14.4441 28.9253 13.0472 28.9253 11.6365C28.9253 8.78747 30.047 6.05512 32.0436 4.04054C34.0401 2.02597 36.7481 0.894196 39.5717 0.894196C42.3953 0.894196 45.1032 2.02597 47.0998 4.04054C49.0964 6.05512 50.2181 8.78747 50.2181 11.6365ZM25.1494 26.9622C23.7298 26.5112 22.2665 26.2147 20.7844 26.0777C19.9516 25.9978 19.1154 25.9584 18.2789 25.9596C4.08371 25.9596 0.534912 36.7019 0.534912 40.2827C0.534912 42.671 1.71666 43.8634 4.08371 43.8634H19.0454C18.5194 42.7456 18.257 41.52 18.2789 40.2827C18.2789 36.6661 19.6168 32.9707 22.1471 29.8841C23.0095 28.8314 24.0138 27.8466 25.1494 26.9622ZM17.995 29.5403C12.0756 29.612 8.71489 31.832 6.7808 34.1094C4.66216 36.5945 4.08371 39.3481 4.08371 40.2827H14.7301C14.7301 36.5408 15.8764 32.8132 17.995 29.5403ZM5.85811 13.4269C5.85811 10.5779 6.97978 7.8455 8.97637 5.83093C10.973 3.81636 13.6809 2.68458 16.5045 2.68458C19.3281 2.68458 22.0361 3.81636 24.0326 5.83093C26.0292 7.8455 27.1509 10.5779 27.1509 13.4269C27.1509 16.2759 26.0292 19.0083 24.0326 21.0228C22.0361 23.0374 19.3281 24.1692 16.5045 24.1692C13.6809 24.1692 10.973 23.0374 8.97637 21.0228C6.97978 19.0083 5.85811 16.2759 5.85811 13.4269ZM16.5045 6.26535C14.6221 6.26535 12.8168 7.01987 11.4857 8.36292C10.1547 9.70596 9.40691 11.5275 9.40691 13.4269C9.40691 15.3262 10.1547 17.1478 11.4857 18.4909C12.8168 19.8339 14.6221 20.5884 16.5045 20.5884C18.3869 20.5884 20.1922 19.8339 21.5233 18.4909C22.8543 17.1478 23.6021 15.3262 23.6021 13.4269C23.6021 11.5275 22.8543 9.70596 21.5233 8.36292C20.1922 7.01987 18.3869 6.26535 16.5045 6.26535Z" fill="#23A6F0"/>
</svg>
