<svg width="19" height="16" viewBox="0 0 19 16" fill="none" xmlns="http://www.w3.org/2000/svg">
<path fill-rule="evenodd" clip-rule="evenodd" d="M-0.618564 2.25399C-0.492857 1.68905 -0.183835 1.18463 0.257891 0.823352C0.699617 0.462072 1.24786 0.265342 1.81284 0.265381H16.7753C17.3403 0.265342 17.8886 0.462072 18.3303 0.823352C18.772 1.18463 19.081 1.68905 19.2067 2.25399L9.29409 8.4679L-0.618564 2.25399ZM-0.680908 3.71443V12.7994L6.55471 8.24922L-0.680908 3.71443ZM7.74921 8.9999L-0.442755 14.1498C-0.240354 14.5875 0.0790954 14.9573 0.478413 15.2161C0.877731 15.4749 1.34049 15.612 1.81284 15.6115H16.7753C17.2476 15.6116 17.7102 15.4742 18.1093 15.2152C18.5084 14.9562 18.8276 14.5863 19.0297 14.1485L10.8377 8.99862L9.29409 9.96671L7.74921 8.99862V8.9999ZM12.0335 8.2505L19.2691 12.7994V3.71443L12.0335 8.24922V8.2505Z" fill="#23A6F0"/>
</svg>
